<?xml version="1.0" encoding="utf-8"?>
<!-- Generator: Adobe Illustrator 16.0.3, SVG Export Plug-In . SVG Version: 6.00 Build 0)  -->
<!DOCTYPE svg PUBLIC "-//W3C//DTD SVG 1.1//EN" "http://www.w3.org/Graphics/SVG/1.1/DTD/svg11.dtd">
<svg version="1.1" id="Capa_1" xmlns="http://www.w3.org/2000/svg" xmlns:xlink="http://www.w3.org/1999/xlink" x="0px" y="0px"
	 width="20px" height="20px" viewBox="0 0 20 20" enable-background="new 0 0 20 20" xml:space="preserve">
<g>
	<path fill-rule="evenodd" clip-rule="evenodd" fill="#097BFA" d="M4.692,11.343c0-2.229,0-4.459,0-6.69
		c0-1.028,0.458-1.477,1.495-1.476c3.045,0,6.09-0.001,9.135,0c1.009,0,1.473,0.462,1.473,1.467
		c0.001,4.487,0.001,8.974-0.001,13.46c0,0.895-0.49,1.402-1.382,1.404c-3.113,0.006-6.225,0.006-9.336,0
		c-0.897,0-1.38-0.494-1.381-1.393c-0.002-2.258-0.001-4.516-0.001-6.773C4.692,11.343,4.692,11.343,4.692,11.343z M6.019,4.497
		c0,4.575,0,9.12,0,13.678c3.159,0,6.288,0,9.437,0c0-4.57,0-9.113,0-13.678C12.306,4.497,9.187,4.497,6.019,4.497z"/>
	<path fill-rule="evenodd" clip-rule="evenodd" fill="#097BFA" d="M2,7.826c0-1.803-0.001-3.607,0-5.411
		c0.001-1.295,0.628-1.927,1.914-1.927c2.552,0,5.104,0,7.656,0.001c0.134,0,0.271-0.008,0.399,0.021
		c0.34,0.081,0.535,0.3,0.523,0.657c-0.011,0.338-0.207,0.544-0.532,0.607c-0.155,0.031-0.32,0.024-0.479,0.024
		C8.983,1.8,6.484,1.8,3.986,1.8c-0.646,0-0.668,0.021-0.668,0.684c0,3.595,0,7.187-0.001,10.783c0,0.119,0.006,0.24-0.006,0.359
		c-0.04,0.389-0.289,0.629-0.645,0.635c-0.348,0.006-0.613-0.244-0.656-0.623c-0.012-0.105-0.007-0.213-0.007-0.318
		c0-1.832,0-3.663,0-5.494C2.002,7.826,2.001,7.826,2,7.826z"/>
</g>
</svg>
