<svg xmlns="http://www.w3.org/2000/svg" viewBox="0 0 130.7 113.04"><defs><style>.cls-1{fill:#fff;}.cls-2{fill:#0065a1;}.cls-3{fill:#76bc21;}.cls-4{fill:#ff8300;}</style></defs><g id="Capa_3" data-name="Capa 3"><circle class="cls-1" cx="65.35" cy="56.52" r="52.54"/><path class="cls-2" d="M68.51,92.51s5.34-14.08,4.36-35.8C72.26,43.3,66.6,29.62,66.6,29.62S83.23,35.2,95.25,48.78A76.18,76.18,0,0,1,87,71.26C80.44,82.93,70.78,91.2,68.51,92.51Z"/><path class="cls-3" d="M65.73,50.44A31.71,31.71,0,0,0,41.6,47.56s3.38,26.67,26.91,45C68.51,92.51,72.74,70.83,65.73,50.44Z"/><path class="cls-4" d="M64.66,47.18A81.24,81.24,0,0,0,54.09,26.36a66.11,66.11,0,0,0-13.23-1.23,69.08,69.08,0,0,0-.1,15.69S52.45,38,64.66,47.18Z"/></g></svg>