<svg xmlns="http://www.w3.org/2000/svg" xmlns:xlink="http://www.w3.org/1999/xlink" viewBox="0 0 132.94 84.24"><defs><style>.cls-1{fill:#015e8d;}.cls-2{fill:url(#Degradado_sin_nombre_45);}.cls-3{fill:#fff;}</style><linearGradient id="Degradado_sin_nombre_45" x1="64.95" y1="14.58" x2="64.33" y2="132.54" gradientUnits="userSpaceOnUse"><stop offset="0.1" stop-color="#0084b4"/><stop offset="0.1" stop-color="#0083b4"/><stop offset="0.16" stop-color="#0073aa"/><stop offset="0.22" stop-color="#006aa4"/><stop offset="0.3" stop-color="#0067a2"/><stop offset="0.38" stop-color="#015f94"/><stop offset="0.56" stop-color="#03527e"/><stop offset="0.73" stop-color="#044b70"/><stop offset="0.87" stop-color="#04486b"/></linearGradient></defs><g id="Capa_3" data-name="Capa 3"><path class="cls-1" d="M119.19,12.05c1.31-.07,2.9,4.3,4,10.39h-6.84a23.88,23.88,0,0,1,.68-5.53C117.57,14.88,118.25,12.11,119.19,12.05Z"/><path class="cls-2" d="M119.15,12.05H10.78c.46.9.78,1.66,1,2.17a23.42,23.42,0,0,1,1.79,8.31c0,.65,0,1.29,0,1.93h0V59.17L65,78l51.42-18.83V24.46h0V22.53a23.34,23.34,0,0,1,1.78-8.31C118.36,13.71,118.69,13,119.15,12.05Z"/><path class="cls-1" d="M10.74,12.05c-1.31-.07-2.9,4.3-4,10.39h6.84a24,24,0,0,0-.69-5.53C12.36,14.88,11.68,12.11,10.74,12.05Z"/><path class="cls-3" d="M29,47.54l.9-8.39h1.59l.89,8.39v.38H29Zm.16-12.91h3.07v3H29.11Z"/><path class="cls-3" d="M35.32,34.63H38l6.23,8.18V34.63h2.88V47.92H44.65L38.2,39.47v8.45H35.32Z"/><path class="cls-3" d="M50,44.33V37.74h2.89v5.68c0,1.37.64,2.07,1.74,2.07s1.81-.7,1.81-2.07V37.74h2.89V47.92H56.39V46.48a3.62,3.62,0,0,1-3,1.63C51.22,48.11,50,46.67,50,44.33Z"/><path class="cls-3" d="M61.37,42.89v0a5.07,5.07,0,0,1,5-5.3c3.4,0,5,2.64,5,5.53,0,.23,0,.49,0,.76H64.23a2.36,2.36,0,0,0,2.49,2,3.32,3.32,0,0,0,2.47-1l1.66,1.46a5.38,5.38,0,0,1-9.48-3.36ZM68.55,42a2.18,2.18,0,0,0-2.15-2.16A2.26,2.26,0,0,0,64.2,42Z"/><path class="cls-3" d="M72.12,37.74h3.06l2.28,6.82,2.3-6.82h3L78.75,48H76.13Z"/><path class="cls-3" d="M83.37,42.89v0a5.52,5.52,0,0,1,11,0v0a5.34,5.34,0,0,1-5.53,5.3A5.29,5.29,0,0,1,83.37,42.89Zm8.17,0v0A2.71,2.71,0,0,0,88.86,40a2.6,2.6,0,0,0-2.64,2.77v0a2.7,2.7,0,0,0,2.68,2.81A2.61,2.61,0,0,0,91.54,42.89Z"/><path class="cls-3" d="M96.57,35v-.37H100V35l-.89,8.4h-1.6Zm.15,9.88H99.8v3H96.72Z"/></g></svg>