<svg xmlns="http://www.w3.org/2000/svg" viewBox="0 0 104.37 114.1"><defs><style>.cls-1{fill:#03719f;}.cls-2{fill:#006fa6;}.cls-3{fill:#d6aa70;}.cls-4{fill:#d3a261;}.cls-5{fill:#0181c2;}.cls-6{fill:#0065a1;}.cls-7{fill:#026393;}.cls-8{fill:#0099c8;}.cls-9{fill:#f9b114;}.cls-10{fill:none;stroke:#3d3d3c;stroke-linecap:round;stroke-linejoin:round;stroke-width:2px;}.cls-11{fill:#00a6ce;}.cls-12{fill:#ffb71b;}.cls-13{fill:#76bc21;}.cls-14{fill:#ff8300;}</style></defs><g id="Capa_2" data-name="Capa 2"><path class="cls-1" d="M24.31,79.39a7.8,7.8,0,0,1-.5-2.08c.74,0,1.47,0,2.21,0l15,0,2,0H74.66c2,0,3.94,0,5.91,0q-3,13.71-6.07,27.42a3.2,3.2,0,0,1-1.85,2.52c-.42-.2-.48-.64-.66-1-1-2-1.82-4.2-3.35-6q.94-4.45,1.9-8.91c.61-2.87,1.24-5.74,1.85-8.61a1.7,1.7,0,1,0-3.3-.84c-1,4.71-2,9.42-3,14.14-.38,0-.49-.33-.71-.55-1-.94-1.51-2.3-2.87-2.84.49-3.26,1-6.52,1.46-9.78a1.8,1.8,0,0,0-1.38-2.24c-1.07-.17-1.81.5-2,1.75-.33,2.31-.7,4.6-1.06,6.9a2.44,2.44,0,0,1-1.09-.57c-1.5-1-2.84-2.35-4.59-3,0-1.16,0-2.32,0-3.48a1.6,1.6,0,0,0-1.73-1.59,1.62,1.62,0,0,0-1.63,1.59c0,.45,0,.91,0,1.37-.38-.16-.77-.31-1.15-.48a31.48,31.48,0,0,0-6.24-2.27,1.32,1.32,0,0,1-.84-.22c-.05-.05-.1-.12-.16-.13A44.21,44.21,0,0,0,24.31,79.39Z"/><path class="cls-2" d="M75,51.52a7.23,7.23,0,0,1,4,5.11,8.2,8.2,0,0,1-1,6.64,2.46,2.46,0,0,0-.2.47c-.18.16-.38.3-.55.48a8.57,8.57,0,0,1-6.88,2.94c-2.59,0-5.18,0-7.77,0-1.5,0-3,0-4.52,0l-24.4,0a2.73,2.73,0,0,1,1.23-1.85,22,22,0,0,1,6.64-3.07c6.92-2.23,14-3.68,21.06-5.6C66.87,55.39,71.21,54.15,75,51.52Z"/><path class="cls-3" d="M33.59,67.11l24.4,0c1.51,0,3,0,4.52,0a27.75,27.75,0,0,1-2.29,2.31,34.84,34.84,0,0,1-14.3,7c-1.64.36-3.3.43-4.93.77l-15,0c-.74,0-1.47,0-2.21,0-4.16-.26-6.3-3.31-5.08-7.38A8.41,8.41,0,0,1,26,63.78a6.71,6.71,0,0,0,4.22,3.12A9,9,0,0,0,33.59,67.11ZM26.83,71.4a2.56,2.56,0,0,0-2.54-2.56,2.53,2.53,0,0,0-.06,5.06A2.56,2.56,0,0,0,26.83,71.4Z"/><path class="cls-4" d="M41,77.25c1.63-.34,3.29-.41,4.93-.77a34.84,34.84,0,0,0,14.3-7,27.75,27.75,0,0,0,2.29-2.31c2.59,0,5.18-.08,7.77,0a8.57,8.57,0,0,0,6.88-2.94c.17-.18.37-.32.55-.48a8.43,8.43,0,0,1,8.08,6.72c.95,4.09-1.81,7-5.22,6.86-2,0-3.94,0-5.91,0H43Z"/><path class="cls-5" d="M24.31,79.39a44.21,44.21,0,0,1,17.77,1.13c.06,0,.11.08.16.13-1.56.14-2,.85-1.79,2.38.5,3.17.92,6.34,1.37,9.52q.59,4.08,1.16,8.17l1,6.93H40.76c-.23-1.06-.45-2.12-.67-3.18q-2.42-11.18-4.82-22.34a1.68,1.68,0,0,0-1.88-1.44A1.92,1.92,0,0,0,32,82.83c1.32,6.11,2.65,12.22,3.95,18.34a61.69,61.69,0,0,1,1.29,6.47c-1.34,0-2.67.07-4,0a3.28,3.28,0,0,1-3.26-2.9q-2.4-10.68-4.77-21.37C24.86,82.07,24.59,80.73,24.31,79.39Z"/><path class="cls-6" d="M65.48,39.68a49.61,49.61,0,0,1-8.86,10,44.69,44.69,0,0,1-14.23,8.16A46.33,46.33,0,0,1,25.15,60.4v-.65a11.19,11.19,0,0,1,2.73-2.59c1.95-1.1,3.89-2.23,5.92-3.18a129.84,129.84,0,0,0,13.13-6.59,24.74,24.74,0,0,0,7.91-7.11,7.1,7.1,0,0,0,1.54-3.52,2.81,2.81,0,0,0,.91.21,13.59,13.59,0,0,1,4,.83,12,12,0,0,1,2.85,1A4.52,4.52,0,0,1,65.48,39.68Z"/><path class="cls-2" d="M51.93,32.7a4.51,4.51,0,0,1,1.5,2.37,9.51,9.51,0,0,1-3,5.54,33.22,33.22,0,0,1-8.85,6.13c-4.25,2.22-8.71,4-12.95,6.26a6.61,6.61,0,0,1-2.05,1,14,14,0,0,1,2.87-4.85,22.49,22.49,0,0,1,6.79-5.38,4.49,4.49,0,0,0,2.37-3.74c.44-3.63-.63-7-2-10.25-.19-.47-.7-1-.34-1.41s1-.08,1.5,0a40.55,40.55,0,0,1,9.79,2.17A18.41,18.41,0,0,1,51.93,32.7Zm-8.22,5.74a3.38,3.38,0,1,0,0-6.76,3.34,3.34,0,0,0-3.39,3.42A3.43,3.43,0,0,0,43.71,38.44Z"/><path class="cls-7" d="M25.15,60.4a46.33,46.33,0,0,0,17.24-2.51,44.69,44.69,0,0,0,14.23-8.16,49.61,49.61,0,0,0,8.86-10,7.15,7.15,0,0,1,3.39,2.49,12.34,12.34,0,0,1,3.35,7.25,46.14,46.14,0,0,1-5.17,2.33c-6.76,2.31-13.79,3.6-20.66,5.48a52.63,52.63,0,0,0-11.34,4c-2.31,1.24-4.47,2.69-4.84,5.63A6.71,6.71,0,0,1,26,63.78,6.78,6.78,0,0,1,25.15,60.4Z"/><path class="cls-6" d="M30.21,66.9c.37-2.94,2.53-4.39,4.84-5.63a52.63,52.63,0,0,1,11.34-4c6.87-1.88,13.9-3.17,20.66-5.48a46.14,46.14,0,0,0,5.17-2.33,1.55,1.55,0,0,0,1.24,1.28c.54.16,1.18.24,1.52.82-3.77,2.63-8.11,3.87-12.46,5.07-7,1.92-14.14,3.37-21.06,5.6a22,22,0,0,0-6.64,3.07,2.73,2.73,0,0,0-1.23,1.85A9,9,0,0,1,30.21,66.9Z"/><path class="cls-5" d="M43.08,80.87a31.48,31.48,0,0,1,6.24,2.27c.38.17.77.32,1.15.48q0,12,0,24H47.3a4.85,4.85,0,0,0-.2-1.56c-.43-3.21-.86-6.42-1.32-9.64-.53-3.79-1-7.59-1.66-11.38C43.89,83.66,44.08,82.11,43.08,80.87Z"/><path class="cls-7" d="M26.62,53.85a6.61,6.61,0,0,0,2.05-1c4.24-2.24,8.7-4,12.95-6.26a33.22,33.22,0,0,0,8.85-6.13,9.48,9.48,0,0,0,3-5.54,2.9,2.9,0,0,1,3,1.88,7.1,7.1,0,0,1-1.54,3.52,24.74,24.74,0,0,1-7.91,7.11A129.84,129.84,0,0,1,33.8,54c-2,1-4,2.08-5.92,3.18a11.19,11.19,0,0,0-2.73,2.59A13.31,13.31,0,0,1,26.62,53.85Z"/><path class="cls-5" d="M53.86,85.73c1.75.67,3.09,2,4.59,3a2.44,2.44,0,0,0,1.09.57,6,6,0,0,1-.21,2c-.36,2.72-.77,5.45-1.16,8.17L57,107.65H53.85Q53.85,96.69,53.86,85.73Z"/><path class="cls-8" d="M66.09,96.08c1-4.72,2-9.43,3-14.14a1.7,1.7,0,1,1,3.3.84c-.61,2.87-1.24,5.74-1.85,8.61s-1.27,5.94-1.9,8.91c-.5,2.45-1.19,4.86-1.5,7.34l-3.36,0a6.11,6.11,0,0,1,0-1Q64.94,101.35,66.09,96.08Z"/><path class="cls-8" d="M37.19,107.64a61.69,61.69,0,0,0-1.29-6.47C34.6,95.05,33.27,88.94,32,82.83a1.92,1.92,0,0,1,1.44-2.14,1.68,1.68,0,0,1,1.88,1.44q2.4,11.18,4.82,22.34c.22,1.06.44,2.12.67,3.18Z"/><path class="cls-8" d="M57,107.65l1.14-8.18c.39-2.72.8-5.45,1.16-8.17a6,6,0,0,0,.21-2c.36-2.3.73-4.59,1.06-6.9.18-1.25.92-1.92,2-1.75A1.8,1.8,0,0,1,64,82.91c-.49,3.26-1,6.52-1.46,9.78-.15,1.21-.29,2.42-.47,3.62-.54,3.78-1.1,7.56-1.65,11.34Z"/><path class="cls-8" d="M53.86,85.73q0,11,0,21.92H50.48q0-12,0-24c0-.46,0-.92,0-1.37a1.62,1.62,0,0,1,1.63-1.59,1.6,1.6,0,0,1,1.73,1.59C53.89,83.41,53.86,84.57,53.86,85.73Z"/><path class="cls-8" d="M43.08,80.87c1,1.24.81,2.79,1,4.2.62,3.79,1.13,7.59,1.66,11.38.46,3.22.89,6.43,1.32,9.64a4.85,4.85,0,0,1,.2,1.56H43.94l-1-6.93q-.57-4.09-1.16-8.17C41.37,89.37,41,86.2,40.45,83c-.24-1.53.23-2.24,1.79-2.38A1.32,1.32,0,0,0,43.08,80.87Z"/><path class="cls-5" d="M60.39,107.65c.55-3.78,1.11-7.56,1.65-11.34.18-1.2.32-2.41.47-3.62,1.36.54,1.91,1.9,2.87,2.84.22.22.33.54.71.55q-1.14,5.27-2.27,10.53a6.11,6.11,0,0,0,0,1Z"/><path class="cls-5" d="M67.14,107.64c.31-2.48,1-4.89,1.5-7.34,1.53,1.75,2.34,3.91,3.35,6,.18.37.24.81.66,1-1.26.71-2.63.33-4,.41A13.41,13.41,0,0,1,67.14,107.64Z"/><path class="cls-4" d="M26.83,71.4a2.56,2.56,0,0,1-2.6,2.5,2.53,2.53,0,0,1,.06-5.06A2.56,2.56,0,0,1,26.83,71.4Z"/><path class="cls-6" d="M43.71,38.44a3.43,3.43,0,0,1-3.37-3.34,3.34,3.34,0,0,1,3.39-3.42,3.38,3.38,0,1,1,0,6.76Z"/><path class="cls-9" d="M56.94,6.39a8.51,8.51,0,0,1,3.89,8.5,3.81,3.81,0,0,1-7.57.06C52.49,11.27,54.38,8.72,56.94,6.39Z"/><line class="cls-10" x1="57.08" y1="18.93" x2="57.08" y2="22.34"/><path class="cls-11" d="M58.39,47.29l-3.93-3.52v-20c.87,0,1.74-2.27,2.62-2.27s1.71,2.27,2.59,2.27V25c0,6.61,0,13.23,0,19.84,0,1.16-.11,2-.94,2.22A1.13,1.13,0,0,0,58.39,47.29Z"/><path class="cls-12" d="M69.76,58.16l-.61.78a.59.59,0,0,0-.12.38l0,1a.47.47,0,0,1-.09.33.57.57,0,0,1-.69.24l-.93-.33a.45.45,0,0,0-.16,0,.5.5,0,0,0-.24,0l-.93.34a.59.59,0,0,1-.79-.57l0-1a.59.59,0,0,0-.12-.38l-.61-.77a.59.59,0,0,1,.3-.93l1-.28a.57.57,0,0,0,.32-.23l.55-.82a.58.58,0,0,1,1,0l.56.81a.58.58,0,0,0,.32.24l1,.27A.59.59,0,0,1,69.76,58.16Z"/><path class="cls-12" d="M53.52,51.28l-.6.78a.58.58,0,0,0-.13.38l0,1a.6.6,0,0,1-.09.33A.59.59,0,0,1,52,54l-.92-.33-.17,0a.59.59,0,0,0-.23,0l-.93.34a.59.59,0,0,1-.79-.57l0-1a.58.58,0,0,0-.12-.38l-.61-.78a.58.58,0,0,1,.3-.92l.94-.28a.6.6,0,0,0,.33-.23l.55-.82a.58.58,0,0,1,1,0l.56.82a.54.54,0,0,0,.32.23l.95.27A.59.59,0,0,1,53.52,51.28Z"/><path class="cls-13" d="M44.45,42.38l-.6.78a.58.58,0,0,0-.13.38l0,1a.6.6,0,0,1-.09.33.59.59,0,0,1-.7.24L42,44.77l-.16,0a.67.67,0,0,0-.24,0l-.92.34a.59.59,0,0,1-.79-.57l0-1a.58.58,0,0,0-.13-.38l-.61-.78a.59.59,0,0,1,.3-.92l.95-.28a.55.55,0,0,0,.32-.24l.55-.81a.59.59,0,0,1,1,0l.55.82a.56.56,0,0,0,.33.23l.95.27A.59.59,0,0,1,44.45,42.38Z"/><path class="cls-11" d="M41.69,56.94l-.61.78a.66.66,0,0,0-.12.38l0,1a.67.67,0,0,1-.09.34.59.59,0,0,1-.7.23l-.93-.33a.45.45,0,0,0-.16,0,.5.5,0,0,0-.24,0l-.93.34a.59.59,0,0,1-.79-.57l0-1a.6.6,0,0,0-.13-.38L36.46,57a.59.59,0,0,1,.3-.93l1-.28a.57.57,0,0,0,.32-.23l.55-.82a.58.58,0,0,1,1,0l.56.81a.58.58,0,0,0,.32.24l1,.27A.59.59,0,0,1,41.69,56.94Z"/><path class="cls-14" d="M68.52,46.52l-.6.78a.58.58,0,0,0-.12.38l0,1a.56.56,0,0,1-.09.34.58.58,0,0,1-.69.24l-.93-.34a.86.86,0,0,0-.17,0,.59.59,0,0,0-.23,0l-.93.33a.58.58,0,0,1-.79-.56l0-1a.58.58,0,0,0-.12-.38l-.61-.78a.58.58,0,0,1,.3-.92l.95-.28a.58.58,0,0,0,.32-.24l.55-.82a.59.59,0,0,1,1,0l.56.82a.62.62,0,0,0,.32.23l1,.27A.59.59,0,0,1,68.52,46.52Z"/></g></svg>