<svg xmlns="http://www.w3.org/2000/svg" viewBox="0 0 42.52 42.52"><defs><style>.cls-1{fill:#fff;}</style></defs><g id="Capa_3" data-name="Capa 3"><path class="cls-1" d="M9.61,22.23H7.75a1,1,0,1,1,0-1.94H9.62V14.48H7.67a1,1,0,0,1,0-1.94h2v-.33c0-.88,0-1.75,0-2.63A2.88,2.88,0,0,1,12.5,6.73H32.93a2.88,2.88,0,0,1,2.86,2.85V33A2.88,2.88,0,0,1,33,35.79H12.48a2.87,2.87,0,0,1-2.84-2.86c0-1,0-1.94,0-2.95H7.73a1,1,0,1,1,0-1.94H9.61Zm1.65-8v6h2a1,1,0,1,1,0,2H11.25v5.95l.07,0h1.62a2.09,2.09,0,0,1,.56,0,1,1,0,0,1,.73,1.12,1,1,0,0,1-1,.84h-2V33c0,.84.38,1.22,1.21,1.22H33c.85,0,1.23-.38,1.23-1.21V9.52c0-.86-.38-1.23-1.24-1.23H12.31a1,1,0,0,0-1.07,1.08c0,.41,0,.83,0,1.25v1.62l.09,0h1.84a1,1,0,1,1,0,2Z"/><path class="cls-1" d="M25.5,22.7a6.94,6.94,0,0,1,2.14,1.22,6.7,6.7,0,0,1,2.32,4,1,1,0,0,1-.75,1.18,1,1,0,0,1-1.17-.8,4.76,4.76,0,0,0-3.85-3.91,4.89,4.89,0,0,0-5.84,3.87,1,1,0,0,1-.89.85.93.93,0,0,1-1-.67,1.32,1.32,0,0,1,0-.56,6.74,6.74,0,0,1,4.27-5.1,1.56,1.56,0,0,0,.17-.07,4.85,4.85,0,0,1-2.52-4.52,4.67,4.67,0,0,1,1.53-3.31,4.84,4.84,0,0,1,6.91.31A4.68,4.68,0,0,1,28,19.25,4.81,4.81,0,0,1,25.5,22.7Zm-2.31-1.35a2.91,2.91,0,1,0-2.9-2.89A2.93,2.93,0,0,0,23.19,21.35Z"/></g></svg>