<svg xmlns="http://www.w3.org/2000/svg" viewBox="0 0 42.52 42.52"><defs><style>.cls-1{fill:#fff;stroke:#fff;stroke-linecap:round;stroke-linejoin:round;stroke-width:0.75px;}</style></defs><g id="Capa_3" data-name="Capa 3"><path class="cls-1" d="M33.56,35.25H9a6,6,0,0,1-.85-.4,2.09,2.09,0,0,1-.84-1.29v-23a.43.43,0,0,0,0-.07A2,2,0,0,1,9.46,8.91h13a.84.84,0,0,0,.06-.14,2,2,0,0,1,2.09-1.5H33.2a2,2,0,0,1,2,2V33.22a2,2,0,0,1-.44,1.26A2.35,2.35,0,0,1,33.56,35.25Zm-12.31-.82H33c1,0,1.46-.47,1.46-1.48V18.58A1.28,1.28,0,0,0,33,17.11H19.74c-.36,0-.5-.12-.54-.43a1.24,1.24,0,0,0-1.39-1.21H9.5a1.27,1.27,0,0,0-1.41,1.42V33a1.27,1.27,0,0,0,1.43,1.42ZM18,14.65a2,2,0,0,1,2,1.39c.07.21.16.25.36.25H32.44a2.88,2.88,0,0,1,2,.4V9.48A1.26,1.26,0,0,0,33,8.09H24.6a1.22,1.22,0,0,0-1.27,1.08c0,.47-.14.56-.61.56H9.46A1.25,1.25,0,0,0,8.09,11.1v3.67C8.37,14.64,15.34,14.65,18,14.65Z"/></g></svg>