<svg xmlns="http://www.w3.org/2000/svg" viewBox="0 0 104.37 76.01"><defs><style>.cls-1{fill:#0065a1;}.cls-2{fill:#c7c7c7;}.cls-3{fill:#ffb71b;}.cls-4{fill:#76bc21;}.cls-5{fill:#b3b3b2;}</style></defs><g id="Capa_3" data-name="Capa 3"><path class="cls-1" d="M19,67.14a4.29,4.29,0,0,0,3,1.26H82.37a4.28,4.28,0,0,0,4.27-4.28V28.77H17.73V64.12A4.26,4.26,0,0,0,19,67.14Zm53.79-35.5h9.86v8.78H72.77Zm0,11.2h9.86v8.78H72.77ZM60,31.64h9.86v8.78H60Zm0,11.2h9.86v8.78H60Zm0,11.21h9.86v8.77H60ZM47.25,31.64h9.87v8.78H47.25Zm0,11.2h9.87v8.78H47.25Zm0,11.21h9.87v8.77H47.25ZM34.49,31.64h9.87v8.78H34.49Zm0,11.2h9.87v8.78H34.49Zm0,11.21h9.87v8.77H34.49ZM21.74,42.84H31.6v8.78H21.74Zm0,11.21H31.6v8.77H21.74Z"/><rect class="cls-2" x="17.73" y="24.7" width="68.91" height="2.53"/><path class="cls-2" d="M24.81,12.54H22a4.27,4.27,0,0,0-4.27,4.27v5H86.64v-5a4.27,4.27,0,0,0-4.27-4.27H75.12v5.59A1.9,1.9,0,0,1,73.22,20h-4a1.89,1.89,0,0,1-1.89-1.89V12.54H37v5.59A1.89,1.89,0,0,1,35.13,20h-4a1.89,1.89,0,0,1-1.89-1.89V12.54Z"/><rect class="cls-2" x="17.73" y="21.77" width="68.91" height="2.93"/><polygon class="cls-3" points="31.14 18.13 35.13 18.13 35.13 12.54 35.13 7.61 31.14 7.61 31.14 12.54 31.14 18.13"/><polygon class="cls-3" points="69.24 18.13 73.22 18.13 73.22 12.54 73.22 7.61 69.24 7.61 69.24 12.54 69.24 18.13"/><rect class="cls-4" x="34.49" y="31.64" width="9.87" height="8.78"/><rect class="cls-4" x="47.25" y="31.64" width="9.87" height="8.78"/><rect class="cls-4" x="60.01" y="31.64" width="9.87" height="8.78"/><rect class="cls-4" x="72.77" y="31.64" width="9.86" height="8.78"/><rect class="cls-4" x="21.74" y="42.84" width="9.87" height="8.78"/><rect class="cls-4" x="34.49" y="42.84" width="9.87" height="8.78"/><rect class="cls-2" x="47.25" y="42.84" width="9.87" height="8.78"/><rect class="cls-5" x="60.01" y="42.84" width="9.87" height="8.78"/><rect class="cls-4" x="72.77" y="42.84" width="9.86" height="8.78"/><rect class="cls-4" x="21.74" y="54.05" width="9.87" height="8.78"/><rect class="cls-5" x="34.49" y="54.05" width="9.87" height="8.78"/><rect class="cls-2" x="47.25" y="54.05" width="9.87" height="8.78"/><rect class="cls-2" x="60.01" y="54.05" width="9.87" height="8.78"/></g></svg>