<svg xmlns="http://www.w3.org/2000/svg" viewBox="0 0 104.37 76.01"><defs><style>.cls-1{fill:#165126;}.cls-2{fill:#65812b;}.cls-3{fill:#b2b81a;}.cls-4{fill:#aec212;}.cls-5{fill:#9aab21;}.cls-6{fill:#bdd018;}.cls-7{fill:#899a26;}</style></defs><g id="Capa_2" data-name="Capa 2"><path class="cls-1" d="M56.4,17.58A19.87,19.87,0,0,1,79,8.91a14.49,14.49,0,0,1-8.77,11C65.7,21.78,60.25,20.54,56.4,17.58Z"/><path class="cls-2" d="M77.05,9.46c-7.42.47-13.87,5-20.53,8h0l-.1.15c3.85,3,9.3,4.2,13.79,2.34a14.57,14.57,0,0,0,8.72-10.7C79,8.55,77.75,9.41,77.05,9.46Z"/><path class="cls-3" d="M56.4,17.58s10.66-7,22.56-8.67C79,8.91,63,15.51,56.4,17.58Z"/><path class="cls-2" d="M59.12,10.86a17.32,17.32,0,0,1-2.28,12.83l-1.91-.21a18.28,18.28,0,0,0-1.2-15.56c.62-1.19,2.42-1.31,3.51-.52A5.58,5.58,0,0,1,59.12,10.86Z"/><path class="cls-4" d="M79.7,44.5c-1.37,9.64-11,21.21-22.54,24.43-3,.83-5.69-1.4-8.79-1.84-3.58-.51-7.09-.36-10.1-1.75a9.36,9.36,0,0,1-2.22-1.42c-8.1-7-12.66-18.77-11.44-27.29,1.3-9.08,9.35-15.89,19.71-17.81,3.45-.63,8.24,2.41,12,2.95,3.28.47,7.49-.68,10.28.58l.94.44C77.08,27.42,81,35.29,79.7,44.5Z"/><path class="cls-5" d="M79.7,44.5c-1,7.37-6.93,15.87-14.79,20.9a29.11,29.11,0,0,1-7.75,3.53c-3,.83-5.69-1.4-8.79-1.84-3.58-.51-7.09-.36-10.1-1.75C64.4,56.06,67.62,33.58,67.58,22.79c.43.21.85.42,1.25.65C77.43,28.13,81,35.71,79.7,44.5Z"/><path class="cls-6" d="M43,24.39A23.91,23.91,0,0,0,30.81,44.12,13,13,0,0,1,43,24.39Z"/><path class="cls-7" d="M79.7,44.5c-1,7.37-6.93,15.87-14.79,20.9a47.88,47.88,0,0,0,5.43-12.65,48.77,48.77,0,0,0-1.51-29.31C77.43,28.13,81,35.71,79.7,44.5Z"/></g></svg>