<svg xmlns="http://www.w3.org/2000/svg" viewBox="0 0 119.63 77.52"><defs><style>.cls-1{isolation:isolate;}.cls-2{fill:#e8878f;}.cls-10,.cls-3{fill:#f2f2f2;}.cls-3,.cls-9{mix-blend-mode:multiply;}.cls-4{fill:#f6b8be;}.cls-5{fill:#ec949b;}.cls-6{fill:#ee8e96;}.cls-7{fill:#0065a1;}.cls-8{fill:#414142;}</style></defs><g class="cls-1"><g id="Capa_2" data-name="Capa 2"><path class="cls-2" d="M85.16,3a2.52,2.52,0,0,0-1.61,1l0,0L74.09,17.53,89.8,14.76l-1.71-9.7A2.52,2.52,0,0,0,85.16,3Z"/><path class="cls-3" d="M82.67,5.28,74.09,17.53,89.8,14.76,89.49,13a25.13,25.13,0,0,0-5.5-.27Z"/><path class="cls-2" d="M111,27.48l-3.69.65,2.35,13.33,3.69-.65a1.64,1.64,0,0,0,1.33-1.9l-1.78-10.1A1.64,1.64,0,0,0,111,27.48Z"/><path class="cls-3" d="M111.34,36.08l-.12-.61a25.43,25.43,0,0,0-2.79-7.54l-1.14.2,2.35,13.33,2.08-.36A25.15,25.15,0,0,0,111.34,36.08Z"/><path class="cls-4" d="M110.15,33.86A25.73,25.73,0,0,0,83.4,13.25L81.84,4.34a2.53,2.53,0,0,0-2.93-2,2.5,2.5,0,0,0-1.61,1l0,0L68.64,15.68,56.57,17.8h0A25.68,25.68,0,0,0,40,29.07a6.47,6.47,0,0,0-2.28-2.28l-.17-.1a5.59,5.59,0,0,0-.8-2.46c-1.05-1.68-3-2.48-5.38-2.25a.61.61,0,1,0,.12,1.21c2-.18,3.42.4,4.23,1.69a4.24,4.24,0,0,1,.52,1.26,5.82,5.82,0,0,0-4,.14,3.17,3.17,0,0,0-1.76,3.49,3.05,3.05,0,0,0,2.82,2.61,3.59,3.59,0,0,0,3.39-1.9,6.07,6.07,0,0,0,.8-2.36,5.26,5.26,0,0,1,1.72,2.17,25.65,25.65,0,0,0-3.1,16.63c0,.2.06.4.1.6a25.74,25.74,0,0,0,29.28,21h0l23.89-4.21a25.73,25.73,0,0,0,20.88-29.8C110.23,34.27,110.2,34.07,110.15,33.86Zm-74.5-4a2.47,2.47,0,0,1-2.25,1.32,1.85,1.85,0,0,1-1.72-1.6,2,2,0,0,1,1-2.18,3.89,3.89,0,0,1,.84-.25,5.13,5.13,0,0,1,2.76.33A4.91,4.91,0,0,1,35.65,29.85Z"/><path class="cls-5" d="M110.27,34.48c0-.21-.07-.41-.12-.61,1.65,11.14-8,22-21.81,24.45L64.45,62.53h0C50.85,64.69,38.35,57.8,36.11,46.92c0,.2.07.4.1.6.07.41.16.82.25,1.23,0,.12.06.23.08.35.07.28.14.57.22.85l.12.41.24.77c.05.14.1.28.14.42l.27.74c0,.13.11.27.16.41s.2.48.31.72l.17.39c.12.25.23.49.35.73l.18.35c.13.26.27.51.41.77.06.09.1.18.16.27.17.31.36.61.55.9l.06.11a23.55,23.55,0,0,0,1.41,2l.08.1c.22.28.44.55.67.81.05.07.11.13.17.2.2.23.41.46.62.68l.21.22c.15.15.3.29.44.44l-2.9,4.14,9.53,6.68,3.31-4.72.65.21.3.09.89.24.26.07q.49.12,1,.21l.17,0a24.71,24.71,0,0,0,3.66.43h.17a26.15,26.15,0,0,0,5-.28h0l23.89-4.21a24.91,24.91,0,0,0,3.78-1l.17-.06q.5-.16,1-.36l.28-.12c.29-.11.57-.23.86-.36l.31-.15.8-.38.32-.17c.26-.13.51-.27.76-.42a1.92,1.92,0,0,0,.31-.18c.26-.14.5-.3.75-.45l.29-.19c.25-.16.5-.34.75-.51l.24-.17c.2-.14.38-.29.57-.43l4.49,3.14L111.74,53,108,50.35c.13-.26.25-.52.37-.78l.09-.2c.16-.36.32-.72.46-1.09v0c.29-.76.55-1.54.78-2.33,0-.06,0-.11,0-.17.09-.33.18-.66.26-1l.06-.32c.07-.29.13-.57.18-.86,0-.13,0-.26.07-.39l.12-.81c0-.14,0-.28,0-.42s.06-.53.08-.79,0-.3,0-.45,0-.52,0-.78,0-.31,0-.46,0-.53,0-.79,0-.3,0-.46,0-.54,0-.81,0-.29,0-.44l-.09-.89c0-.12,0-.24,0-.36C110.41,35.32,110.34,34.9,110.27,34.48Z"/><polygon class="cls-2" points="40.58 65.51 38.43 68.58 44.13 70.59 47.97 75.26 50.11 72.19 40.58 65.51"/><polygon class="cls-2" points="105.06 62.51 108.13 64.66 110.14 58.96 114.81 55.13 111.74 52.98 105.06 62.51"/><path class="cls-6" d="M66.23,27.6a3.39,3.39,0,0,0,3.17-4.24l-1.93-7.48L56.57,17.8h0A25.68,25.68,0,0,0,40,29.07a6.47,6.47,0,0,0-2.28-2.28l-.17-.1a5.59,5.59,0,0,0-.8-2.46A5.33,5.33,0,0,0,31.41,22l-.42.15a.64.64,0,0,0-.21.51.62.62,0,0,0,.67.55c2-.18,3.42.4,4.23,1.69a4.24,4.24,0,0,1,.52,1.26,5.82,5.82,0,0,0-4,.14,3.17,3.17,0,0,0-1.76,3.49,3.05,3.05,0,0,0,2.82,2.61,3.59,3.59,0,0,0,3.39-1.9,6.07,6.07,0,0,0,.8-2.36,5.26,5.26,0,0,1,1.72,2.17,25.57,25.57,0,0,0-3.28,15.1C44.49,37.73,52.75,28.07,66.23,27.6ZM35.65,29.85a2.47,2.47,0,0,1-2.25,1.32,1.85,1.85,0,0,1-1.72-1.6,2,2,0,0,1,1-2.18,3.89,3.89,0,0,1,.84-.25,5.13,5.13,0,0,1,2.76.33A4.91,4.91,0,0,1,35.65,29.85Z"/><path class="cls-7" d="M66.17,27.39C40.33,25.5,30,59.38,4.83,46c0,0,6.43-2,6.78-10.9.31-7.66-6.51-12.28-.54-23.29C31.53,32.22,44.85.85,68.64,15.68l1.14,7.84A3.39,3.39,0,0,1,66.17,27.39Z"/><path class="cls-8" d="M92.77,27.36a1,1,0,0,1-1.15-.86,3.05,3.05,0,0,0-6,.88,1,1,0,1,1-2,.3,5.07,5.07,0,1,1,10-1.47A1,1,0,0,1,92.77,27.36Z"/><g class="cls-9"><path class="cls-10" d="M33.83,33.94s.44-.42,1.26-1.11c.41-.34.9-.75,1.49-1.2s1.26-1,2-1.48,1.56-1.09,2.45-1.64,1.84-1.13,2.83-1.7,2.06-1.1,3.15-1.61,2.21-1,3.35-1.45c.57-.23,1.15-.43,1.72-.64s1.16-.39,1.74-.55a32.53,32.53,0,0,1,3.44-.85c.57-.11,1.13-.21,1.68-.28l.81-.12.8-.07c.53,0,1-.09,1.54-.09s1,0,1.44,0,.9,0,1.31.05l1.19.12c.74.08,1.38.22,1.9.31s.93.24,1.2.31l.43.11-1.66-.18-.88,0c-.31,0-.66-.06-1-.05H64.84l-1.29.06c-.45,0-.92.07-1.4.11s-1,.11-1.49.18-1,.16-1.56.26-1.07.21-1.61.33c-1.1.25-2.22.55-3.35.89-.56.17-1.12.37-1.69.55l-1.69.61c-1.12.43-2.23.89-3.31,1.38s-2.13,1-3.14,1.5c-2,1-3.85,2.07-5.4,3C35.81,32.52,33.83,33.94,33.83,33.94Z"/></g><g class="cls-9"><path class="cls-10" d="M34.05,23.38s.48-.32,1.34-.84c.43-.25,1-.56,1.57-.89s1.32-.7,2.09-1.07,1.62-.77,2.53-1.16,1.89-.76,2.9-1.14L46,17.75c.54-.16,1.07-.34,1.62-.49s1.09-.31,1.65-.44,1.13-.27,1.69-.39,1.14-.22,1.7-.32,1.14-.16,1.71-.24,1.13-.12,1.68-.16,1.12-.07,1.66-.07a28.69,28.69,0,0,1,3.13.13,23.5,23.5,0,0,1,2.78.44l1.21.3,1.07.35c.67.21,1.22.49,1.69.68s.8.41,1,.54l.37.19-1.49-.51-.8-.21a7,7,0,0,0-.93-.24l-1.08-.23-1.19-.19c-.84-.1-1.75-.21-2.72-.24s-2,0-3,0c-.53,0-1.06.08-1.6.11L54.53,17c-1.1.16-2.21.32-3.32.55s-2.21.49-3.29.76c-.54.13-1.07.29-1.6.44l-1.54.47c-1,.32-2,.64-2.91,1s-1.79.65-2.58,1C36.11,22.38,34.05,23.38,34.05,23.38Z"/></g></g></g></svg>