<svg xmlns="http://www.w3.org/2000/svg" viewBox="0 0 104.37 76.01"><defs><style>.cls-1{fill:#003a5d;opacity:0.75;}.cls-2{fill:#e8e7ea;}.cls-3{fill:#0065a1;}.cls-4{fill:#fffdfe;}.cls-5{fill:#f9c2a8;}.cls-6{fill:#8e8395;}.cls-7{fill:#76bc21;}.cls-8{fill:#ff8300;}</style></defs><g id="Capa_3" data-name="Capa 3"><rect class="cls-1" x="17.21" y="13.81" width="73.21" height="51.75" rx="4.95" transform="translate(0.56 -0.75) rotate(0.81)"/><rect class="cls-2" x="13.94" y="10.49" width="73.21" height="51.75" rx="4.95" transform="translate(0.52 -0.71) rotate(0.81)"/><path class="cls-3" d="M87.49,13.13A2.13,2.13,0,0,0,85.39,11L16.44,10a2.14,2.14,0,0,0-2.16,2.1l-.06,4.07,73.21,1Z"/><path class="cls-4" d="M76.64,14A1.71,1.71,0,1,1,75,12.22,1.7,1.7,0,0,1,76.64,14Z"/><path class="cls-4" d="M81.34,14a1.71,1.71,0,1,1-1.69-1.73A1.71,1.71,0,0,1,81.34,14Z"/><path class="cls-4" d="M86,14.08a1.71,1.71,0,1,1-1.68-1.73A1.7,1.7,0,0,1,86,14.08Z"/><rect class="cls-5" x="19.08" y="26.99" width="38.55" height="22.62" transform="translate(0.54 -0.54) rotate(0.81)"/><rect class="cls-6" x="63.02" y="27.45" width="16.4" height="1.83" transform="translate(0.4 -0.97) rotate(0.79)"/><rect class="cls-6" x="62.96" y="31.61" width="16.4" height="1.83" transform="translate(0.45 -0.97) rotate(0.79)"/><rect class="cls-6" x="62.9" y="35.77" width="16.4" height="1.83" transform="translate(0.51 -0.97) rotate(0.79)"/><rect class="cls-6" x="62.85" y="39.93" width="16.4" height="1.83" transform="translate(0.57 -0.97) rotate(0.79)"/><rect class="cls-6" x="62.79" y="44.08" width="16.4" height="1.83" transform="translate(0.62 -0.97) rotate(0.79)"/><rect class="cls-6" x="62.73" y="48.24" width="16.4" height="1.83" transform="translate(0.68 -0.97) rotate(0.79)"/><rect class="cls-6" x="62.63" y="54.73" width="16.4" height="1.83" transform="translate(0.77 -0.97) rotate(0.79)"/><rect class="cls-6" x="62.58" y="58.89" width="16.4" height="1.83" transform="translate(0.83 -0.97) rotate(0.79)"/><rect class="cls-6" x="40.97" y="54.42" width="16.4" height="1.83" transform="translate(0.76 -0.67) rotate(0.79)"/><rect class="cls-6" x="40.92" y="58.58" width="16.4" height="1.83" transform="translate(0.82 -0.67) rotate(0.79)"/><rect class="cls-6" x="19.08" y="54.11" width="16.4" height="1.83" transform="translate(0.76 -0.37) rotate(0.79)"/><rect class="cls-6" x="19.02" y="58.28" width="16.4" height="1.83" transform="translate(0.81 -0.37) rotate(0.79)"/><path class="cls-6" d="M19.26,19h1l-.07,4.73h-1Z"/><path class="cls-6" d="M21.36,20.13h1v.51a1.27,1.27,0,0,1,1.07-.56,1.19,1.19,0,0,1,1.21,1.36l0,2.34h-1l0-2c0-.49-.22-.74-.62-.75s-.64.25-.65.73l0,2h-1Z"/><path class="cls-6" d="M25.57,20.19h1v.51a1.25,1.25,0,0,1,1.06-.56,1.18,1.18,0,0,1,1.21,1.36l0,2.34h-1l0-2c0-.49-.22-.74-.61-.75s-.64.24-.65.73l0,2h-1Z"/><path class="cls-6" d="M29.57,22.07h0a1.91,1.91,0,0,1,2-1.86,1.88,1.88,0,0,1,1.93,1.9h0a2,2,0,0,1-3.92,0Zm2.91,0h0a1,1,0,0,0-.94-1,.93.93,0,0,0-.95,1h0a1,1,0,0,0,.94,1A.93.93,0,0,0,32.48,22.11Z"/><path class="cls-6" d="M33.73,20.3h1.09l.78,2.44.85-2.42,1.07,0L36,24l-.93,0Z"/><path class="cls-6" d="M37.69,22.93h0c0-.79.62-1.15,1.47-1.14a2.78,2.78,0,0,1,.89.16v-.06c0-.42-.26-.66-.77-.67a2.91,2.91,0,0,0-1,.18L38,20.61a3.33,3.33,0,0,1,1.41-.28,1.7,1.7,0,0,1,1.22.43A1.58,1.58,0,0,1,41,21.92L41,24l-1,0v-.39a1.4,1.4,0,0,1-1.1.45A1.12,1.12,0,0,1,37.69,22.93Zm2.36-.2v-.18a1.56,1.56,0,0,0-.65-.15c-.44,0-.71.17-.72.49v0c0,.27.23.44.56.44S40,23.1,40.05,22.73Z"/><path class="cls-6" d="M44.09,19.33h1l2.17,2.95,0-2.92,1,0-.06,4.73h-.89l-2.25-3,0,3H44Z"/><path class="cls-6" d="M49.1,22.34h0a1.8,1.8,0,0,1,1.82-1.86,1.75,1.75,0,0,1,1.73,2c0,.08,0,.17,0,.27l-2.52,0a.82.82,0,0,0,.87.72,1.18,1.18,0,0,0,.89-.36l.58.53a1.84,1.84,0,0,1-1.49.66A1.82,1.82,0,0,1,49.1,22.34Zm2.56-.27a.78.78,0,0,0-.75-.78c-.43,0-.71.29-.8.76Z"/><path class="cls-6" d="M53,20.56l1,0,.55,2.2.71-2.2h.89l.65,2.23.63-2.2,1,0-1.18,3.63h-.92L55.7,22,55,24.24l-.92,0Z"/><path class="cls-6" d="M58.66,23.78l.45-.67a2.1,2.1,0,0,0,1.14.45c.29,0,.43-.1.43-.27h0c0-.22-.35-.3-.74-.43s-1.08-.4-1.07-1.1h0a1.18,1.18,0,0,1,1.34-1.13,2.45,2.45,0,0,1,1.35.43l-.4.71a2.08,2.08,0,0,0-1-.35c-.25,0-.38.1-.38.24h0c0,.21.34.31.73.45s1.09.42,1.08,1.09h0c0,.8-.62,1.16-1.4,1.15A2.54,2.54,0,0,1,58.66,23.78Z"/><path class="cls-3" d="M38.09,47.73a26.58,26.58,0,0,0,1.31-9.68,25.31,25.31,0,0,0-1.6-7.35A20.15,20.15,0,0,1,45.48,36a20.53,20.53,0,0,1-2.32,6A18.75,18.75,0,0,1,38.09,47.73Z"/><path class="cls-7" d="M37.49,36.33A8.58,8.58,0,0,0,31,35.46a20,20,0,0,0,7.12,12.27A25,25,0,0,0,37.49,36.33Z"/><path class="cls-8" d="M37.21,35.44a22.12,22.12,0,0,0-2.78-5.67,18.26,18.26,0,0,0-3.58-.38,19.13,19.13,0,0,0-.09,4.24A8.23,8.23,0,0,1,37.21,35.44Z"/></g></svg>