<svg xmlns="http://www.w3.org/2000/svg" viewBox="0 0 104.37 76.01"><defs><style>.cls-1{fill:#fabf81;}.cls-1,.cls-2{stroke:#fff;stroke-linecap:round;stroke-linejoin:round;stroke-width:2px;}.cls-2{fill:#ff8300;}</style></defs><g id="Capa_3" data-name="Capa 3"><path class="cls-1" d="M16.91,27.49H51.35A11.75,11.75,0,0,1,63.1,39.23V50.85A11.75,11.75,0,0,1,51.35,62.59H23.41L14.21,71V62.28a11.74,11.74,0,0,1-9-11.43V39.23A11.75,11.75,0,0,1,16.91,27.49Z"/><path class="cls-2" d="M85.32,5H44.62A13.88,13.88,0,0,0,30.73,18.9V32.62A13.89,13.89,0,0,0,44.62,46.51h33l10.87,9.92V46.14a13.91,13.91,0,0,0,10.7-13.52V18.9A13.88,13.88,0,0,0,85.32,5Z"/></g></svg>