<svg xmlns="http://www.w3.org/2000/svg" viewBox="0 0 42.52 42.52"><defs><style>.cls-1{fill:#fff;}</style></defs><g id="Capa_3" data-name="Capa 3"><path class="cls-1" d="M27.84,17.06c1.23.47,1.58,1.05,1.57,2.55a2.13,2.13,0,0,1,.89,3.61c.5.35,1.68,2,2.2,1.8,1.33-.51,2.27.61,3.1,1.48a2,2,0,0,1,0,2.82q-3.12,3.15-6.29,6.28c-1.36,1.36-2.86.13-3.83-1-1.19-1.21,0-2-.59-2.6-1.95-1.88-1.69-2.3-4.61-2.17-1.27.23-2,1.59-2.94,2.37a2.08,2.08,0,0,1-.56,2.74c-.9,1.08-2.29,2-3.51.79-.4-.58-2-1.38-1.33-2.16s1.45.82,2,1.19c.85.92,1.61-.36,2.22-.92a.75.75,0,0,0,0-1.15l-5.93-6a1.17,1.17,0,0,0-1.15-.45C7.13,28,7,27.83,8.92,29.7c.72.65-.15,1.58-.81.84-1.19-1-2.63-2.52-1.17-4,.79-.83,1.64-1.88,2.93-1.53a.71.71,0,0,0,.52-.1c.6-.56,1.15-1.12,1.72-1.71a2.14,2.14,0,0,1,.67-3.5,2.12,2.12,0,0,1,1.27-3.17A2.12,2.12,0,0,1,15.55,14a2.15,2.15,0,0,1,2.32-2.59,1.05,1.05,0,0,0,.73-.11c1.41-.55,3.66.42,5.21.55a2.25,2.25,0,0,1,2.52,2.63C27.66,15.18,28,15.79,27.84,17.06ZM16.58,31.31c1.33-1.21,2.28-3.06,4.34-2.69,1.14.09,2.32.25,3.15-.88a.5.5,0,0,1,.79,0c.65.6-.44,1.23-.76,1.65l1.83,1.86,5.34-5.36c-.56-.63-1.18-1.24-1.78-1.87-.39.37-.87.86-1.27.41-.66-.72.82-1.5,1.21-2.06a.87.87,0,1,0-1.23-1.21c-.69,1-2,.43-1.12-.54.3-.31.63-.61.92-.93a.86.86,0,0,0-1.22-1.21c-1.11,1.44-2.07.41-1.34-.35.54-.59,1.83-1.4,1-2.24-.61-.59-1.29.06-1.72.55a.6.6,0,1,1-.81-.87c.35-.33.7-.67,1-1a.86.86,0,0,0-1.2-1.22c-.58.54-1.13,1.11-1.69,1.66.66,1.66.09,2.68-1.74,3.18a2.09,2.09,0,0,1-1.87,2c-.09,0-.21.16-.23.27-.43,2-1.62,1.39-2.06,2.05a2.06,2.06,0,0,1-2.87,1.64c-.11,0-.3-.05-.36,0-.6.57-1.19,1.15-1.75,1.7ZM28,35c2.44-1.82,4.4-4.35,6.66-6.42,1-.85-.27-1.62-.86-2.26a.79.79,0,0,0-1.17,0c-2.09,2.08-4.18,4.16-6.24,6.26-.17.17-.31.66-.2.78A21.68,21.68,0,0,0,27.75,35S27.84,35,28,35Zm-8.84-16.8c-.48-1.25-1.67-1.91-2.53-2.89-.71-.69-1.9.45-1.2,1.18s1.5,1.54,2.27,2.28C18.23,19.36,18.82,18.73,19.13,18.23ZM17.59,12.4c-.65.45-1.22,1-.56,1.67.86.85,1.71,1.72,2.58,2.56a.85.85,0,0,0,1.44-.25.67.67,0,0,0-.41-.92A5,5,0,0,1,18.16,13C18.07,12.78,17.84,12.64,17.59,12.4Zm-.51,7.84c-.41-1-1.29-1.54-2-2.31s-1.91.4-1.23,1.15C14.69,19.86,16.15,22.15,17.08,20.24Zm-2.15,2c0-.7-1.37-2.09-2.09-1.16-.65.71.3,1.44.82,1.86A.82.82,0,0,0,14.93,22.26ZM19.16,12.2a3.79,3.79,0,0,0,1.78,2.11l1.53-1.51Z"/><path class="cls-1" d="M31.42,7a15,15,0,0,1-2.35,2.56c-.55.64-1.48-.31-.82-.85S30.71,5.43,31.42,7Z"/><path class="cls-1" d="M11.62,6.36a16.16,16.16,0,0,1,2.52,2.3.6.6,0,1,1-.82.86c-.69-.67-1.38-1.35-2-2C11,7,11.14,6.64,11.62,6.36Z"/><path class="cls-1" d="M21.81,8.19c0,.4,0,.81,0,1.21a.61.61,0,1,1-1.2,0q0-1.21,0-2.43a.61.61,0,0,1,.6-.68C22.09,6.33,21.75,7.58,21.81,8.19Z"/><path class="cls-1" d="M10.39,32.61a.58.58,0,1,1,0-1.15C11.15,31.41,11.13,32.66,10.39,32.61Z"/><path class="cls-1" d="M26.91,26.31a.58.58,0,0,1-1.16,0A.58.58,0,0,1,26.91,26.31Z"/></g></svg>