<svg xmlns="http://www.w3.org/2000/svg" viewBox="0 0 42.52 42.52"><defs><style>.cls-1,.cls-2{fill:#fff;}.cls-1{stroke:#fff;stroke-linecap:round;stroke-linejoin:round;stroke-width:0.25px;}</style></defs><g id="Capa_3" data-name="Capa 3"><path class="cls-1" d="M26.85,6.51c.19.18.39.36.57.55,1.46,1.45,2.91,2.91,4.37,4.35a1,1,0,0,1,.3.72q0,11.11,0,22.23A1.59,1.59,0,0,1,30.44,36c-6.13,0-12.25,0-18.38,0a1.49,1.49,0,0,1-1.62-1.63q0-13.11,0-26.23a1.62,1.62,0,0,1,1.15-1.63Zm-.69,1h-14c-.6,0-.74.15-.74.75v26c0,.6.14.75.74.75H30.35c.58,0,.73-.15.73-.73V12.75c0-.1,0-.2,0-.33H27.87a1.53,1.53,0,0,1-1.71-1.7V7.49Zm1,.78c0,.94,0,1.85,0,2.75,0,.29.25.39.52.39h2.48a.35.35,0,0,0,.11,0Z"/><path class="cls-2" d="M28.62,20.77v1H18.81v-1Z"/><path class="cls-2" d="M28.62,15.87v.94H18.8v-.94Z"/><path class="cls-2" d="M28.62,25.7v.95H18.8V25.7Z"/><path class="cls-2" d="M28.62,30.61v.94H18.81v-.94Z"/><path class="cls-2" d="M16.83,21.27a1.47,1.47,0,1,1-1.46-1.5A1.49,1.49,0,0,1,16.83,21.27Zm-1.95,0a.48.48,0,1,0,.52-.44A.47.47,0,0,0,14.88,21.23Z"/><path class="cls-2" d="M16.83,16.35a1.47,1.47,0,1,1-1.47-1.49A1.46,1.46,0,0,1,16.83,16.35Zm-1,0a.49.49,0,0,0-.48-.47.48.48,0,1,0,.48.47Z"/><path class="cls-2" d="M16.83,26.18a1.47,1.47,0,1,1-2.94,0,1.47,1.47,0,0,1,2.94,0Zm-1.48.47a.49.49,0,0,0,.49-.47.48.48,0,1,0-1,0A.5.5,0,0,0,15.35,26.65Z"/><path class="cls-2" d="M16.83,31.1a1.47,1.47,0,1,1-1.46-1.49A1.46,1.46,0,0,1,16.83,31.1Zm-1.95,0a.48.48,0,0,0,1,0,.5.5,0,0,0-.48-.51A.51.51,0,0,0,14.88,31.08Z"/></g></svg>