<svg xmlns="http://www.w3.org/2000/svg" viewBox="0 0 42.52 42.52"><defs><style>.cls-1{fill:#fff;}</style></defs><g id="Capa_3" data-name="Capa 3"><path class="cls-1" d="M14.4,6.51a3.33,3.33,0,0,1,1.39.64,2.71,2.71,0,0,1,.84,2.93A2.72,2.72,0,1,1,13,6.75a5.78,5.78,0,0,1,.7-.24Zm-.38,4a1.33,1.33,0,0,0,1.35-1.32A1.35,1.35,0,0,0,14,7.91a1.32,1.32,0,0,0,0,2.64Z"/><path class="cls-1" d="M14,26.35l-.6,5.26c-.1.91-.22,1.82-.33,2.73A1.88,1.88,0,0,1,10.93,36,1.94,1.94,0,0,1,9.29,33.7c.18-1.43.34-2.87.51-4.31s.38-3.11.55-4.68c.08-.74.1-1.49.12-2.23a.49.49,0,0,0-.15-.34c-.56-.57-1.14-1.12-1.71-1.68A3.53,3.53,0,0,1,7.5,18.1,3.4,3.4,0,0,1,8,16.16l1.56-2.62a1.91,1.91,0,0,1,1.71-.91c1.85,0,3.7,0,5.55,0a2.14,2.14,0,0,1,1.78,1c.6,1,1.19,1.95,1.7,3a3.34,3.34,0,0,1-.8,3.82c-.57.57-1.15,1.11-1.71,1.67a.58.58,0,0,0-.17.4c.07,1.1.15,2.21.26,3.32s.29,2.51.43,3.77.28,2.49.44,3.73a2.29,2.29,0,0,1-.35,1.94,1.82,1.82,0,0,1-1.95.66A1.76,1.76,0,0,1,15,34.43c-.17-1.1-.28-2.21-.41-3.31s-.29-2.46-.43-3.68l-.13-1.08Zm-3.07-8.42a8.53,8.53,0,0,1,.67.68,1.08,1.08,0,0,1,.25.58,49.38,49.38,0,0,1-.28,7.29c-.35,2.48-.6,5-.89,7.45,0,.35.12.6.41.64s.55-.11.6-.49c.12-.91.23-1.83.33-2.74.26-2.24.51-4.47.76-6.71A1.28,1.28,0,0,1,14,23.45a1.23,1.23,0,0,1,1.25,1.12c.13,1,.24,2,.36,3,.14,1.24.29,2.48.44,3.71.11.95.22,1.91.34,2.86a.48.48,0,0,0,.55.42.47.47,0,0,0,.44-.51c0-.32,0-.63-.09-.94-.14-1.25-.29-2.5-.43-3.74s-.31-2.5-.43-3.74c-.11-1-.2-2-.25-3.07,0-.87,0-1.74,0-2.62,0-1.3-.12-1,.77-1.86l0,0c.14-.1.13-.2.05-.34-.27-.43-.53-.87-.78-1.31a1.38,1.38,0,0,1-.16-.51.66.66,0,0,1,.49-.64.69.69,0,0,1,.81.33c.38.62.76,1.25,1.11,1.89a1,1,0,0,1-.18,1.24,1.85,1.85,0,0,1-.38.36c-.44.3-.35.72-.27,1.18.32-.28.59-.59.87-.88a2,2,0,0,0,.34-2.48c-.43-.79-.9-1.56-1.35-2.33a1.13,1.13,0,0,0-1-.58h-5a1,1,0,0,0-1,.55c-.41.77-.89,1.5-1.32,2.26a2.52,2.52,0,0,0-.32.88,2.82,2.82,0,0,0,1.52,2.53A1.07,1.07,0,0,0,10,19a1.53,1.53,0,0,1-.18-.18,1.07,1.07,0,0,1-.18-1.37c.34-.59.68-1.18,1.05-1.75a1.05,1.05,0,0,1,.5-.38.59.59,0,0,1,.7.27.71.71,0,0,1,0,.81C11.57,16.88,11.26,17.4,10.94,17.93Z"/><path class="cls-1" d="M21.65,8.3c.48,0,1,0,1.44,0a1.77,1.77,0,0,1,1.78,1.59c.08.62.16,1.24.25,1.85a.35.35,0,0,0,.16.23,3.07,3.07,0,0,0,.59.25.48.48,0,0,0,.35-.06c.49-.35,1-.73,1.44-1.09a1.77,1.77,0,0,1,2.43.13c.68.66,1.34,1.32,2,2a1.75,1.75,0,0,1,.13,2.42c-.37.49-.75,1-1.11,1.47a.4.4,0,0,0-.05.32c.3.77.3.77,1.13.86.46,0,.91.1,1.37.18A1.78,1.78,0,0,1,35,20.29c0,.94,0,1.88,0,2.82a1.78,1.78,0,0,1-1.61,1.77c-.61.08-1.21.15-1.82.25-.09,0-.17.11-.26.18v0c-.33.71-.33.71.15,1.32.26.35.53.69.79,1a1.76,1.76,0,0,1-.1,2.36c-.68.71-1.37,1.41-2.08,2.08a1.73,1.73,0,0,1-2.38.12l-1.46-1.12a.32.32,0,0,0-.36-.05c-.74.31-.74.31-.82,1.12-.05.45-.1.9-.18,1.34A1.77,1.77,0,0,1,23.07,35c-1,0-2,0-3,0a.71.71,0,0,1-.78-.57.64.64,0,0,1,.36-.74,1.35,1.35,0,0,1,.53-.1h2.76c.46,0,.53-.07.59-.52.09-.74.19-1.48.29-2.22a.84.84,0,0,1,.58-.71c.46-.16.91-.36,1.35-.56a.81.81,0,0,1,.94.09c.6.47,1.2.92,1.81,1.38.32.24.44.24.71,0l1.86-1.85a.44.44,0,0,0,0-.7c-.45-.59-.89-1.18-1.35-1.75a.88.88,0,0,1-.12-1c.21-.44.39-.89.56-1.35a.77.77,0,0,1,.7-.54l2.2-.29c.46-.06.54-.16.54-.64V20.39c0-.44-.07-.53-.49-.59l-2.33-.32a.72.72,0,0,1-.6-.47l-.64-1.54a.72.72,0,0,1,.09-.78c.48-.62,1-1.25,1.43-1.88.22-.29.22-.44,0-.7l-1.87-1.87c-.26-.26-.38-.26-.67,0-.61.46-1.21.91-1.81,1.38a.83.83,0,0,1-1,.11,12.83,12.83,0,0,0-1.33-.55.79.79,0,0,1-.57-.74c-.09-.75-.2-1.5-.3-2.25,0-.35-.17-.45-.54-.46H20.33c-.37,0-.48.1-.53.46-.09.72-.19,1.44-.28,2.17a.74.74,0,0,1-.8.72.73.73,0,0,1-.59-.92l.3-2.28A1.75,1.75,0,0,1,20.16,8.3C20.66,8.29,21.15,8.3,21.65,8.3Z"/><path class="cls-1" d="M21.67,27.12a5.66,5.66,0,0,1-3.07-1,.71.71,0,0,1-.37-.75.6.6,0,0,1,.52-.54,1.64,1.64,0,0,1,.7.17,13.22,13.22,0,0,0,1.43.56,4.05,4.05,0,1,0,.82-8,1.14,1.14,0,0,1-.65-.23.58.58,0,0,1-.15-.73.7.7,0,0,1,.69-.43A5.45,5.45,0,0,1,27,22.54a5.24,5.24,0,0,1-4,4.38A8.24,8.24,0,0,1,21.67,27.12Z"/></g></svg>