<svg xmlns="http://www.w3.org/2000/svg" viewBox="0 0 42.52 42.52"><defs><style>.cls-1{fill:#fff;}</style></defs><g id="Capa_3" data-name="Capa 3"><path class="cls-1" d="M7.8,22.26v-2a.84.84,0,0,0,0-.17c.09-.61.15-1.23.28-1.83a13.46,13.46,0,0,1,26.4,5.21,13.46,13.46,0,0,1-10.91,11c-.47.09-.95.14-1.42.21H20.31l-.91-.11a13.35,13.35,0,0,1-8.12-4.32,13.06,13.06,0,0,1-3.33-7Zm1.73-1A11.72,11.72,0,1,0,21.24,9.55,11.71,11.71,0,0,0,9.53,21.27Z"/><path class="cls-1" d="M14.52,18.37a2.89,2.89,0,1,1-2.88,2.9A2.9,2.9,0,0,1,14.52,18.37Zm0,3.84a1,1,0,1,0-.93-1A.93.93,0,0,0,14.51,22.21Z"/><path class="cls-1" d="M24.14,21.25a2.89,2.89,0,1,1-2.9-2.88A2.9,2.9,0,0,1,24.14,21.25Zm-2.91,1a1,1,0,0,0,.05-1.9,1,1,0,1,0-.05,1.9Z"/><path class="cls-1" d="M30.87,21.26A2.89,2.89,0,1,1,28,18.37,2.9,2.9,0,0,1,30.87,21.26Zm-3.84,0a.93.93,0,0,0,.94.95,1,1,0,1,0-.94-.95Z"/></g></svg>