<svg xmlns="http://www.w3.org/2000/svg" viewBox="0 0 42.52 42.52"><defs><style>.cls-1{fill:#fff;}</style></defs><g id="Capa_3" data-name="Capa 3"><path class="cls-1" d="M23.39,6.52,25.24,7l10,2.3a.92.92,0,0,1,.81,1c0,3.25,0,6.51,0,9.76A16.34,16.34,0,0,1,25,35.49c-.47.17-.95.29-1.43.44a1.66,1.66,0,0,1-1.12-.06c-.85-.28-1.7-.57-2.54-.9a.9.9,0,0,1-.56-1.25,1,1,0,0,1,1.29-.45c.75.28,1.51.54,2.27.8a.65.65,0,0,0,.39,0A14.16,14.16,0,0,0,33.86,22.8a14.52,14.52,0,0,0,.29-3c0-2.83,0-5.65,0-8.47v-.37l-2-.46c-2.94-.67-5.87-1.36-8.81-2a2.21,2.21,0,0,0-.95.08L12.32,10.88c-.21,0-.28.11-.28.33,0,2.94,0,5.89,0,8.84,0,.52,0,1.05.1,1.57.07.74-.32,1.22-1,1.2a.91.91,0,0,1-.86-.78c-.05-.53-.11-1.07-.11-1.61q0-5.07,0-10.16a.92.92,0,0,1,.81-1l11.68-2.7a.45.45,0,0,0,.12-.06Z"/><path class="cls-1" d="M6.51,29.27a1.14,1.14,0,0,1,1.26-.64c.21,0,.43,0,.61,0l.7-1.69c-.17-.17-.41-.37-.63-.6A.92.92,0,0,1,8.4,25,.93.93,0,0,1,9.76,25c.22.21.42.44.6.63L12,25v-.91a.93.93,0,1,1,1.85,0V25l1.71.71c.15-.17.35-.42.57-.64a.93.93,0,1,1,1.31,1.31c-.21.22-.44.42-.63.61l.7,1.67h.9a.92.92,0,0,1,1,.92.9.9,0,0,1-1,.92h-.91l-.71,1.7c.17.16.42.36.64.58a.93.93,0,1,1-1.31,1.31c-.22-.21-.43-.43-.62-.63l-1.66.7V35A.93.93,0,1,1,12,35v-.9l-1.71-.71c-.15.17-.35.41-.57.64a.93.93,0,1,1-1.31-1.31l.63-.6-.7-1.68a4.12,4.12,0,0,0-.61,0,1.15,1.15,0,0,1-1.26-.64Zm3.86,1.22A2.81,2.81,0,0,0,12,32.15a1,1,0,0,1,1.87,0,2.8,2.8,0,0,0,1.66-1.67,1,1,0,0,1-.75-.89,1,1,0,0,1,.75-1A2.77,2.77,0,0,0,13.89,27a1,1,0,0,1-.84.75A1,1,0,0,1,12,27a2.75,2.75,0,0,0-1.66,1.67.93.93,0,0,1,.75.88A1,1,0,0,1,10.37,30.49Z"/><path class="cls-1" d="M21.68,22.28,22,22l5.49-5.5a.93.93,0,1,1,1.33,1.3c-.93.92-1.85,1.84-2.77,2.77-1.17,1.16-2.33,2.33-3.5,3.5a1,1,0,0,1-1.58,0c-1.17-1.17-2.34-2.33-3.5-3.5a.92.92,0,1,1,1.28-1.33c.89.88,1.77,1.76,2.65,2.65C21.47,22,21.56,22.15,21.68,22.28Z"/></g></svg>