<svg xmlns="http://www.w3.org/2000/svg" viewBox="0 0 621.81 69.11"><defs><style>.cls-1{fill:#ffb71b;}.cls-2{fill:#76bc21;}.cls-3{fill:#0065a1;}.cls-4{fill:#ff8300;}.cls-5{fill:#385cad;}</style></defs><g id="Capa_2" data-name="Capa 2"><polygon class="cls-1" points="362.12 34.63 344.63 52.11 344.63 69.11 362.48 69.11 379.59 52.01 396.69 69.11 414.06 69.11 414.06 52.1 396.55 34.58 414.06 17.07 414.06 0 396.71 0 379.4 17.31 362.09 0 344.63 0 344.63 17.14 362.12 34.63"/><polygon class="cls-2" points="86.86 34.63 69.38 52.11 69.38 69.11 87.22 69.11 104.33 52.01 121.43 69.11 138.8 69.11 138.8 52.1 121.29 34.58 138.8 17.07 138.8 0 121.45 0 104.14 17.31 86.83 0 69.38 0 69.38 17.14 86.86 34.63"/><polygon class="cls-3" points="17.48 34.63 0 52.11 0 69.11 17.85 69.11 34.95 52.01 52.06 69.11 69.43 69.11 69.43 52.1 51.91 34.58 69.43 17.07 69.43 0 52.07 0 34.76 17.31 17.45 0 0 0 0 17.14 17.48 34.63"/><polygon class="cls-4" points="156.37 34.63 138.62 52.11 138.62 69.11 156.74 69.11 174.1 52.01 191.46 69.11 209.09 69.11 209.09 52.1 191.31 34.58 209.09 17.07 209.09 0 191.47 0 173.91 17.31 156.34 0 138.62 0 138.62 17.14 156.37 34.63"/><polygon class="cls-4" points="225.83 34.63 209.09 52.11 209.09 69.11 226.18 69.11 242.56 52.01 258.94 69.11 275.57 69.11 275.57 52.1 258.8 34.58 275.57 17.07 275.57 0 258.95 0 242.38 17.31 225.81 0 209.09 0 209.09 17.14 225.83 34.63"/><polygon class="cls-1" points="292.87 34.63 275.39 52.11 275.39 69.11 293.24 69.11 310.34 52.01 327.45 69.11 344.82 69.11 344.82 52.1 327.3 34.58 344.82 17.07 344.82 0 327.46 0 310.15 17.31 292.84 0 275.39 0 275.39 17.14 292.87 34.63"/><polygon class="cls-4" points="431.37 34.63 413.88 52.11 413.88 69.11 431.73 69.11 448.84 52.01 465.94 69.11 483.31 69.11 483.31 52.1 465.8 34.58 483.31 17.07 483.31 0 465.95 0 448.64 17.31 431.33 0 413.88 0 413.88 17.14 431.37 34.63"/><polygon class="cls-5" points="500.61 34.63 483.13 52.11 483.13 69.11 500.98 69.11 518.08 52.01 535.19 69.11 552.56 69.11 552.56 52.1 535.04 34.58 552.56 17.07 552.56 0 535.2 0 517.89 17.31 500.58 0 483.13 0 483.13 17.14 500.61 34.63"/><polygon class="cls-5" points="569.86 34.63 552.38 52.11 552.38 69.11 570.23 69.11 587.33 52.01 604.44 69.11 621.81 69.11 621.81 52.1 604.29 34.58 621.81 17.07 621.81 0 604.45 0 587.14 17.31 569.83 0 552.38 0 552.38 17.14 569.86 34.63"/></g></svg>